<svg xmlns="http://www.w3.org/2000/svg" xmlns:xlink="http://www.w3.org/1999/xlink" xmlns:lucid="lucid" width="1653" height="825"><g transform="translate(-56 -44)" lucid:page-tab-id="0_0"><path d="M0 0h1760v1360H0z" fill="#fff"/><path d="M453.15 76c0-4.42 3.58-8 8-8h836.75c4.4 0 8 3.58 8 8v25.16c0 4.4-3.6 8-8 8H461.15c-4.42 0-8-3.6-8-8z" stroke="#000" stroke-opacity="0" stroke-width="2" fill="#fff" fill-opacity="0"/><use xlink:href="#a" transform="matrix(1,0,0,1,457.1465527853429,71.99999999994924) translate(244.5853086419753 25.782777777777778)"/><use xlink:href="#b" transform="matrix(1,0,0,1,457.1465527853429,71.99999999994924) translate(378.61 25.782777777777778)"/><use xlink:href="#c" transform="matrix(1,0,0,1,457.1465527853429,71.99999999994924) translate(394.5618518518519 25.782777777777778)"/><use xlink:href="#d" transform="matrix(1,0,0,1,457.1465527853429,71.99999999994924) translate(488.01493827160493 25.782777777777778)"/><use xlink:href="#e" transform="matrix(1,0,0,1,457.1465527853429,71.99999999994924) translate(551.8223456790124 25.782777777777778)"/><path d="M628.64 107.8h505.86M628.66 107.8h-1.02M1134.47 107.8h1.03" stroke="#a9afb8" stroke-width="2" fill="none"/><path d="M453.15 117.16c0-4.42 3.58-8 8-8h837.7c4.42 0 8 3.58 8 8V120c0 4.42-3.58 8-8 8h-837.7c-4.42 0-8-3.58-8-8z" stroke="#000" stroke-opacity="0" stroke-width="2" fill="#fff" fill-opacity="0"/><use xlink:href="#f" transform="matrix(1,0,0,1,457.1465527853434,113.15522395684805) translate(329.26349794238683 14.917037037037037)"/><use xlink:href="#g" transform="matrix(1,0,0,1,457.1465527853434,113.15522395684805) translate(358.96380658436215 14.917037037037037)"/><use xlink:href="#h" transform="matrix(1,0,0,1,457.1465527853434,113.15522395684805) translate(401.32604938271606 14.917037037037037)"/><use xlink:href="#i" transform="matrix(1,0,0,1,457.1465527853434,113.15522395684805) translate(413.77553497942387 14.917037037037037)"/><use xlink:href="#j" transform="matrix(1,0,0,1,457.1465527853434,113.15522395684805) translate(472.3688477366255 14.917037037037037)"/><use xlink:href="#k" transform="matrix(1,0,0,1,457.1465527853434,113.15522395684805) translate(489.36473251028804 14.917037037037037)"/><path d="M125.88 260h320v33h-320z" fill="#fff"/><path d="M125.88 292h320v33h-320z" fill="#e6e6e6"/><path d="M125.88 324h320v33h-320z" fill="#fff"/><path d="M125.88 356h320v33h-320z" fill="#e6e6e6"/><path d="M125.88 388h320v33h-320z" fill="#fff"/><path d="M125.88 420h320v33h-320z" fill="#e6e6e6"/><path d="M125.88 452h320v33h-320z" fill="#fff"/><path d="M125.88 484h320v33h-320z" fill="#e6e6e6"/><path d="M125.88 516h320v33h-320z" fill="#fff"/><path d="M125.88 548h320v32h-320z" fill="#e6e6e6"/><path d="M125.88 220h320v40h-320z" fill="#ccc"/><path d="M125.88 228c0-4.42 3.58-8 8-8h304c4.42 0 8 3.58 8 8v344c0 4.42-3.58 8-8 8h-304c-4.42 0-8-3.58-8-8zM125.88 260h320M185.88 260v320" stroke="#333" fill="none"/><use xlink:href="#l" transform="matrix(1,0,0,1,135.8830793438094,220) translate(85.925 23.6)"/><use xlink:href="#m" transform="matrix(1,0,0,1,130.8830793438094,262.5) translate(13 17.1)"/><use xlink:href="#n" transform="matrix(1,0,0,1,190.8830793438094,262.5) translate(46.95 17.1)"/><use xlink:href="#o" transform="matrix(1,0,0,1,190.8830793438094,294.5) translate(24.500000000000014 17.1)"/><use xlink:href="#p" transform="matrix(1,0,0,1,190.8830793438094,326.5) translate(24.97500000000001 17.1)"/><use xlink:href="#q" transform="matrix(1,0,0,1,190.8830793438094,358.5) translate(19.500000000000014 17.1)"/><use xlink:href="#r" transform="matrix(1,0,0,1,190.8830793438094,390.5) translate(4.175000000000011 17.1)"/><use xlink:href="#s" transform="matrix(1,0,0,1,190.8830793438094,422.5) translate(10.000000000000014 17.1)"/><use xlink:href="#t" transform="matrix(1,0,0,1,190.8830793438094,454.5) translate(9.000000000000014 17.1)"/><use xlink:href="#u" transform="matrix(1,0,0,1,130.8830793438094,486.5) translate(13.524999999999999 17.1)"/><use xlink:href="#v" transform="matrix(1,0,0,1,190.8830793438094,486.5) translate(62.74999999999999 17.1)"/><use xlink:href="#u" transform="matrix(1,0,0,1,130.8830793438094,518.5) translate(13.524999999999999 17.1)"/><use xlink:href="#w" transform="matrix(1,0,0,1,190.8830793438094,518.5) translate(56.8 17.1)"/><use xlink:href="#u" transform="matrix(1,0,0,1,130.8830793438094,550.5) translate(13.524999999999999 17.1)"/><use xlink:href="#x" transform="matrix(1,0,0,1,190.8830793438094,550.5) translate(61.77499999999999 17.1)"/><path d="M565.88 260h280v33h-280z" fill="#fff"/><path d="M565.88 292h280v33h-280z" fill="#e6e6e6"/><path d="M565.88 324h280v33h-280z" fill="#fff"/><path d="M565.88 356h280v33h-280z" fill="#e6e6e6"/><path d="M565.88 388h280v33h-280z" fill="#fff"/><path d="M565.88 420h280v33h-280z" fill="#e6e6e6"/><path d="M565.88 452h280v32h-280z" fill="#fff"/><path d="M565.88 220h280v40h-280z" fill="#ccc"/><path d="M565.88 228c0-4.42 3.58-8 8-8h264c4.42 0 8 3.58 8 8v248c0 4.42-3.58 8-8 8h-264c-4.42 0-8-3.58-8-8zM565.88 260h280M625.88 260v224" stroke="#333" fill="none"/><use xlink:href="#y" transform="matrix(1,0,0,1,575.8830793438094,220.0000000000001) translate(75.775 23.6)"/><use xlink:href="#m" transform="matrix(1,0,0,1,570.8830793438094,262.5000000000001) translate(13 17.1)"/><use xlink:href="#w" transform="matrix(1,0,0,1,630.8830793438094,262.5000000000001) translate(36.8 17.1)"/><use xlink:href="#z" transform="matrix(1,0,0,1,630.8830793438094,294.5000000000001) translate(19.825000000000003 17.1)"/><use xlink:href="#A" transform="matrix(1,0,0,1,630.8830793438094,326.5000000000001) translate(-1.1499999999999773 17.1)"/><use xlink:href="#u" transform="matrix(1,0,0,1,570.8830793438094,358.5000000000001) translate(13.524999999999999 17.1)"/><use xlink:href="#B" transform="matrix(1,0,0,1,630.8830793438094,358.5000000000001) translate(28.775000000000006 17.1)"/><use xlink:href="#u" transform="matrix(1,0,0,1,570.8830793438094,390.5000000000001) translate(13.524999999999999 17.1)"/><use xlink:href="#C" transform="matrix(1,0,0,1,630.8830793438094,390.5000000000001) translate(30.525000000000006 17.1)"/><use xlink:href="#u" transform="matrix(1,0,0,1,570.8830793438094,422.5000000000001) translate(13.524999999999999 17.1)"/><use xlink:href="#D" transform="matrix(1,0,0,1,630.8830793438094,422.5000000000001) translate(34.125 17.1)"/><use xlink:href="#u" transform="matrix(1,0,0,1,570.8830793438094,454.5000000000001) translate(13.524999999999999 17.1)"/><use xlink:href="#n" transform="matrix(1,0,0,1,630.8830793438094,454.5000000000001) translate(26.950000000000003 17.1)"/><path d="M125.88 734.75h280v33h-280z" fill="#fff"/><path d="M125.88 766.75h280v33h-280z" fill="#e6e6e6"/><path d="M125.88 798.75h280v32h-280z" fill="#fff"/><path d="M125.88 694.75h280v40h-280z" fill="#ccc"/><path d="M125.88 702.75c0-4.42 3.58-8 8-8h264c4.42 0 8 3.58 8 8v120c0 4.42-3.58 8-8 8h-264c-4.42 0-8-3.58-8-8zM125.88 734.75h280M185.88 734.75v96" stroke="#333" fill="none"/><use xlink:href="#E" transform="matrix(1,0,0,1,135.8830793438094,694.7528907678784) translate(81.725 23.6)"/><use xlink:href="#m" transform="matrix(1,0,0,1,130.8830793438094,737.2528907678784) translate(13 17.1)"/><use xlink:href="#v" transform="matrix(1,0,0,1,190.8830793438094,737.2528907678784) translate(42.74999999999999 17.1)"/><use xlink:href="#F" transform="matrix(1,0,0,1,190.8830793438094,769.2528907678784) translate(25.775000000000006 17.1)"/><use xlink:href="#u" transform="matrix(1,0,0,1,130.8830793438094,801.2528907678784) translate(13.524999999999999 17.1)"/><use xlink:href="#n" transform="matrix(1,0,0,1,190.8830793438094,801.2528907678784) translate(26.950000000000003 17.1)"/><path d="M1003.07 640h240v33h-240z" fill="#fff"/><path d="M1003.07 672h240v33h-240z" fill="#e6e6e6"/><path d="M1003.07 704h240v33h-240z" fill="#fff"/><path d="M1003.07 736h240v32h-240z" fill="#e6e6e6"/><path d="M1003.07 600h240v40h-240z" fill="#ccc"/><path d="M1003.07 608c0-4.42 3.58-8 8-8h224c4.4 0 8 3.58 8 8v152c0 4.42-3.6 8-8 8h-224c-4.42 0-8-3.58-8-8zM1003.07 640h240M1063.07 640v128" stroke="#333" fill="none"/><use xlink:href="#G" transform="matrix(1,0,0,1,1013.0665396719048,600) translate(54.775 23.6)"/><use xlink:href="#m" transform="matrix(1,0,0,1,1008.0665396719048,642.5) translate(13 17.1)"/><use xlink:href="#H" transform="matrix(1,0,0,1,1068.0665396719048,642.5) translate(15.799999999999997 17.1)"/><use xlink:href="#I" transform="matrix(1,0,0,1,1068.0665396719048,674.5) translate(-1.1749999999999972 17.1)"/><use xlink:href="#J" transform="matrix(1,0,0,1,1068.0665396719048,706.5) translate(2.0250000000000057 17.1)"/><use xlink:href="#u" transform="matrix(1,0,0,1,1008.0665396719048,738.5) translate(13.524999999999999 17.1)"/><use xlink:href="#x" transform="matrix(1,0,0,1,1068.0665396719048,738.5) translate(21.77499999999999 17.1)"/><path d="M565.88 640h340v33h-340z" fill="#fff"/><path d="M565.88 672h340v33h-340z" fill="#e6e6e6"/><path d="M565.88 704h340v33h-340z" fill="#fff"/><path d="M565.88 736h340v33h-340z" fill="#e6e6e6"/><path d="M565.88 768h340v33h-340z" fill="#fff"/><path d="M565.88 800h340v32h-340z" fill="#e6e6e6"/><path d="M565.88 600h340v40h-340z" fill="#ccc"/><path d="M565.88 608c0-4.42 3.58-8 8-8h324c4.42 0 8 3.58 8 8v216c0 4.42-3.58 8-8 8h-324c-4.42 0-8-3.58-8-8zM565.88 640h340M625.88 640v192" stroke="#333" fill="none"/><use xlink:href="#K" transform="matrix(1,0,0,1,575.8830793438092,600) translate(79.975 23.6)"/><use xlink:href="#L" transform="matrix(1,0,0,1,575.8830793438092,600) translate(132.525 23.6)"/><use xlink:href="#m" transform="matrix(1,0,0,1,570.8830793438092,642.5) translate(13 17.1)"/><use xlink:href="#x" transform="matrix(1,0,0,1,630.8830793438092,642.5) translate(72.27499999999999 17.1)"/><use xlink:href="#M" transform="matrix(1,0,0,1,630.8830793438092,674.5) translate(-1.7750000000000057 17.1)"/><use xlink:href="#N" transform="matrix(1,0,0,1,630.8830793438092,706.5) translate(11.075000000000017 17.1)"/><use xlink:href="#O" transform="matrix(1,0,0,1,630.8830793438092,738.5) translate(35.525000000000006 17.1)"/><use xlink:href="#u" transform="matrix(1,0,0,1,570.8830793438092,770.5) translate(13.524999999999999 17.1)"/><use xlink:href="#H" transform="matrix(1,0,0,1,630.8830793438092,770.5) translate(66.3 17.1)"/><use xlink:href="#u" transform="matrix(1,0,0,1,570.8830793438092,802.5) translate(13.524999999999999 17.1)"/><use xlink:href="#n" transform="matrix(1,0,0,1,630.8830793438092,802.5) translate(57.45 17.1)"/><path d="M1385.88 260h254.37v33h-254.37z" fill="#fff"/><path d="M1385.88 292h254.37v33h-254.37z" fill="#e6e6e6"/><path d="M1385.88 324h254.37v33h-254.37z" fill="#fff"/><path d="M1385.88 356h254.37v33h-254.37z" fill="#e6e6e6"/><path d="M1385.88 388h254.37v33h-254.37z" fill="#fff"/><path d="M1385.88 420h254.37v32h-254.37z" fill="#e6e6e6"/><path d="M1385.88 220h254.37v40h-254.37z" fill="#ccc"/><path d="M1385.88 228c0-4.42 3.58-8 8-8h238.37c4.42 0 8 3.58 8 8v216c0 4.42-3.58 8-8 8h-238.37c-4.42 0-8-3.58-8-8zM1385.88 260h254.37M1445.88 260v192" stroke="#333" fill="none"/><use xlink:href="#P" transform="matrix(1,0,0,1,1395.8830793438096,220) translate(56.99999999999999 23.6)"/><use xlink:href="#m" transform="matrix(1,0,0,1,1390.8830793438096,262.5) translate(13 17.1)"/><use xlink:href="#C" transform="matrix(1,0,0,1,1450.8830793438096,262.5) translate(18.025000000000006 17.1)"/><use xlink:href="#Q" transform="matrix(1,0,0,1,1450.8830793438096,294.5) translate(3.7250000000000085 17.1)"/><use xlink:href="#R" transform="matrix(1,0,0,1,1450.8830793438096,326.5) translate(5.550000000000011 17.1)"/><use xlink:href="#S" transform="matrix(1,0,0,1,1450.8830793438096,358.5) translate(2.5 17.1)"/><use xlink:href="#u" transform="matrix(1,0,0,1,1390.8830793438096,390.5) translate(13.524999999999999 17.1)"/><use xlink:href="#B" transform="matrix(1,0,0,1,1450.8830793438096,390.5) translate(16.275000000000006 17.1)"/><use xlink:href="#u" transform="matrix(1,0,0,1,1390.8830793438096,422.5) translate(13.524999999999999 17.1)"/><use xlink:href="#w" transform="matrix(1,0,0,1,1450.8830793438096,422.5) translate(24.299999999999997 17.1)"/><path d="M1005.88 260h288.74v33h-288.74z" fill="#fff"/><path d="M1005.88 292h288.74v33h-288.74z" fill="#e6e6e6"/><path d="M1005.88 324h288.74v33h-288.74z" fill="#fff"/><path d="M1005.88 356h288.74v33h-288.74z" fill="#e6e6e6"/><path d="M1005.88 388h288.74v32h-288.74z" fill="#fff"/><path d="M1005.88 220h288.74v40h-288.74z" fill="#ccc"/><path d="M1005.88 228c0-4.42 3.58-8 8-8h272.74c4.42 0 8 3.58 8 8v184c0 4.42-3.58 8-8 8h-272.74c-4.42 0-8-3.58-8-8zM1005.88 260h288.74M1065.88 260v160" stroke="#333" fill="none"/><use xlink:href="#T" transform="matrix(1,0,0,1,1015.8830793438095,220.0000000000001) translate(72.25 23.6)"/><use xlink:href="#m" transform="matrix(1,0,0,1,1010.8830793438095,262.5000000000001) translate(13 17.1)"/><use xlink:href="#B" transform="matrix(1,0,0,1,1070.8830793438096,262.5000000000001) translate(33.275000000000006 17.1)"/><use xlink:href="#U" transform="matrix(1,0,0,1,1070.8830793438096,294.5000000000001) translate(1.3000000000000114 17.1)"/><use xlink:href="#u" transform="matrix(1,0,0,1,1010.8830793438095,326.5000000000001) translate(13.524999999999999 17.1)"/><use xlink:href="#w" transform="matrix(1,0,0,1,1070.8830793438096,326.5000000000001) translate(41.3 17.1)"/><use xlink:href="#u" transform="matrix(1,0,0,1,1010.8830793438095,358.5000000000001) translate(13.524999999999999 17.1)"/><use xlink:href="#C" transform="matrix(1,0,0,1,1070.8830793438096,358.5000000000001) translate(35.025000000000006 17.1)"/><use xlink:href="#u" transform="matrix(1,0,0,1,1010.8830793438095,390.5000000000001) translate(13.524999999999999 17.1)"/><use xlink:href="#D" transform="matrix(1,0,0,1,1070.8830793438096,390.5000000000001) translate(38.625 17.1)"/><path d="M1385.88 640h288.74v33h-288.74z" fill="#fff"/><path d="M1385.88 672h288.74v33h-288.74z" fill="#e6e6e6"/><path d="M1385.88 704h288.74v32h-288.74z" fill="#fff"/><path d="M1385.88 600h288.74v40h-288.74z" fill="#ccc"/><path d="M1385.88 608c0-4.42 3.58-8 8-8h272.74c4.42 0 8 3.58 8 8v120c0 4.42-3.58 8-8 8h-272.74c-4.42 0-8-3.58-8-8zM1385.88 640h288.74M1445.88 640v96" stroke="#333" fill="none"/><use xlink:href="#V" transform="matrix(1,0,0,1,1395.8830793438096,600) translate(50.150000000000006 23.6)"/><use xlink:href="#m" transform="matrix(1,0,0,1,1390.8830793438096,642.5) translate(13 17.1)"/><use xlink:href="#D" transform="matrix(1,0,0,1,1450.8830793438096,642.5) translate(38.625 17.1)"/><use xlink:href="#u" transform="matrix(1,0,0,1,1390.8830793438096,674.5) translate(13.524999999999999 17.1)"/><use xlink:href="#w" transform="matrix(1,0,0,1,1450.8830793438096,674.5) translate(41.3 17.1)"/><use xlink:href="#u" transform="matrix(1,0,0,1,1390.8830793438096,706.5) translate(13.524999999999999 17.1)"/><use xlink:href="#B" transform="matrix(1,0,0,1,1450.8830793438096,706.5) translate(33.275000000000006 17.1)"/><path d="M105.38 750.75h-8c-6.62 0-12-5.37-12-12V512c0-6.63 5.38-12 12-12h8" stroke="#333" fill="none"/><path d="M115.38 740.75v20M125.38 750.75h-20M105.38 740.75v20" stroke="#333" fill="#fff"/><path d="M125.16 510l-20-10 20-10" stroke="#333" fill="#fff" fill-opacity="0"/><path d="M125.16 500h-20M105.16 490v20" stroke="#333" fill="#fff"/><path d="M525.88 276c-5.52 0-10 4.48-10 10v234c0 6.63-5.37 12-12 12h-18" stroke="#333" fill="none"/><path d="M555.38 266v20M565.38 276h-20M545.38 276c0 5.52-4.47 10-10 10-5.52 0-10-4.48-10-10s4.48-10 10-10c5.53 0 10 4.48 10 10" stroke="#333" fill="#fff"/><path d="M446.6 522l20 10-20 10" stroke="#333" fill="#fff" fill-opacity="0"/><path d="M446.6 532h20M486.6 532c0 5.52-4.47 10-10 10-5.52 0-10-4.48-10-10s4.48-10 10-10c5.53 0 10 4.48 10 10" stroke="#333" fill="#fff"/><path d="M982.57 656h-16.1c-6.62 0-12 5.37-12 12v107.6c0 4.75-3.84 8.6-8.6 8.6" stroke="#333" fill="none"/><path d="M992.57 646v20M1002.57 656h-20M982.57 646v20" stroke="#333" fill="#fff"/><path d="M906.6 774.2l20 10-20 10" stroke="#333" fill="#fff" fill-opacity="0"/><path d="M906.6 784.2h20M946.6 784.2c0 5.52-4.47 10-10 10-5.52 0-10-4.48-10-10s4.48-10 10-10c5.53 0 10 4.48 10 10" stroke="#333" fill="#fff"/><path d="M466.38 276h17.5c6.63 0 12 5.37 12 12v516.3c0 6.62 5.38 12 12 12h37.5" stroke="#333" fill="none"/><path d="M456.38 286v-20M446.38 276h20M466.38 286v-20" stroke="#333" fill="#fff"/><path d="M565.16 826.3l-20-10 20-10" stroke="#333" fill="#fff" fill-opacity="0"/><path d="M565.16 816.3h-20M545.16 806.3v20" stroke="#333" fill="#fff"/><path d="M866.38 436c5.25 0 9.5 4.25 9.5 9.5v4c0 6.63 5.38 12 12 12h376c6.63 0 12 5.37 12 12v202.57c0 6.63 5.38 12 12 12h58" stroke="#333" fill="none"/><path d="M856.38 446v-20M846.38 436h20M866.38 446v-20" stroke="#333" fill="#fff"/><path d="M1385.16 698.07l-20-10 20-10" stroke="#333" fill="#fff" fill-opacity="0"/><path d="M1385.16 688.07h-20M1365.16 688.07c0 5.52-4.48 10-10 10s-10-4.48-10-10 4.48-10 10-10 10 4.48 10 10" stroke="#333" fill="#fff"/><path d="M866.38 404h4.3c6.62 0 12 5.37 12 12v8.4c0 6.62 5.37 12 12 12h451.2" stroke="#333" fill="none"/><path d="M856.38 414v-20M846.38 404h20M866.38 414v-20" stroke="#333" fill="#fff"/><path d="M1385.16 446.4l-20-10 20-10" stroke="#333" fill="#fff" fill-opacity="0"/><path d="M1385.16 436.4h-20M1365.16 436.4c0 5.52-4.48 10-10 10s-10-4.48-10-10c0-5.53 4.48-10 10-10s10 4.47 10 10" stroke="#333" fill="#fff"/><path d="M866.38 372h37.5c6.63 0 12-5.37 12-12v-8c0-6.63 5.38-12 12-12h38" stroke="#333" fill="none"/><path d="M856.38 382v-20M846.38 372h20M866.38 382v-20" stroke="#333" fill="#fff"/><path d="M1005.16 350l-20-10 20-10" stroke="#333" fill="#fff" fill-opacity="0"/><path d="M1005.16 340h-20M985.16 340c0 5.52-4.48 10-10 10s-10-4.48-10-10 4.48-10 10-10 10 4.48 10 10" stroke="#333" fill="#fff"/><path d="M1315.12 404.27h50.26" stroke="#333" fill="none"/><path d="M1305.12 414.27v-20M1295.12 404.27h20M1315.12 414.27v-20" stroke="#333" fill="#fff"/><path d="M1385.16 414.27l-20-10 20-10" stroke="#333" fill="#fff" fill-opacity="0"/><path d="M1385.16 404.27h-20M1365.16 394.27v20" stroke="#333" fill="#fff"/><path d="M1315.12 276c5.94 0 10.76 4.82 10.76 10.77v421.4c0 6.64 5.38 12 12 12h27.5" stroke="#333" fill="none"/><path d="M1305.12 286v-20M1295.12 276h20M1315.12 286v-20" stroke="#333" fill="#fff"/><path d="M1385.16 730.18l-20-10 20-10" stroke="#333" fill="#fff" fill-opacity="0"/><path d="M1385.16 720.18h-20M1365.16 710.18v20" stroke="#333" fill="#fff"/><defs><path fill="#a9afb8" d="M136-208V0H84v-208H4v-40h212v40h-80" id="W"/><path fill="#a9afb8" d="M133-34C117-15 103 5 69 4 32 3 11-16 11-54c-1-60 55-63 116-61 1-26-3-47-28-47-18 1-26 9-28 27l-52-2c7-38 36-58 82-57s74 22 75 68l1 82c-1 14 12 18 25 15v27c-30 8-71 5-69-32zm-48 3c29 0 43-24 42-57-32 0-66-3-65 30 0 17 8 27 23 27" id="X"/><path fill="#a9afb8" d="M135-194c87-1 58 113 63 194h-50c-7-57 23-157-34-157-59 0-34 97-39 157H25l-1-190h47c2 12-1 28 3 38 12-26 28-41 61-42" id="Y"/><path fill="#a9afb8" d="M195-6C206 82 75 100 31 46c-4-6-6-13-8-21l49-6c3 16 16 24 34 25 40 0 42-37 40-79-11 22-30 35-61 35-53 0-70-43-70-97 0-56 18-96 73-97 30 0 46 14 59 34l2-30h47zm-90-29c32 0 41-27 41-63 0-35-9-62-40-62-32 0-39 29-40 63 0 36 9 62 39 62" id="Z"/><path fill="#a9afb8" d="M110-194c64 0 96 36 96 99 0 64-35 99-97 99-61 0-95-36-95-99 0-62 34-99 96-99zm-1 164c35 0 45-28 45-65 0-40-10-65-43-65-34 0-45 26-45 65 0 36 10 65 43 65" id="aa"/><path fill="#a9afb8" d="M231 0h-52l-39-155L100 0H48L-1-190h46L77-45c9-52 24-97 36-145h53l37 145 32-145h46" id="ab"/><g id="a"><use transform="matrix(0.0728395061728395,0,0,0.0728395061728395,0,0)" xlink:href="#W"/><use transform="matrix(0.0728395061728395,0,0,0.0728395061728395,13.985185185185184,0)" xlink:href="#X"/><use transform="matrix(0.0728395061728395,0,0,0.0728395061728395,28.553086419753086,0)" xlink:href="#Y"/><use transform="matrix(0.0728395061728395,0,0,0.0728395061728395,44.504938271604935,0)" xlink:href="#Z"/><use transform="matrix(0.0728395061728395,0,0,0.0728395061728395,60.456790123456784,0)" xlink:href="#aa"/><use transform="matrix(0.0728395061728395,0,0,0.0728395061728395,76.40864197530864,0)" xlink:href="#W"/><use transform="matrix(0.0728395061728395,0,0,0.0728395061728395,90.39382716049383,0)" xlink:href="#ab"/><use transform="matrix(0.0728395061728395,0,0,0.0728395061728395,110.78888888888889,0)" xlink:href="#aa"/></g><path fill="#a9afb8" d="M14-72v-43h91v43H14" id="ac"/><use transform="matrix(0.0728395061728395,0,0,0.0728395061728395,0,0)" xlink:href="#ac" id="b"/><path fill="#a9afb8" d="M67-125c0 53 21 87 73 88 37 1 54-22 65-47l45 17C233-25 199 4 140 4 58 4 20-42 15-125 8-235 124-281 211-232c18 10 29 29 36 50l-46 12c-8-25-30-41-62-41-52 0-71 34-72 86" id="ad"/><path fill="#a9afb8" d="M135-150c-39-12-60 13-60 57V0H25l-1-190h47c2 13-1 29 3 40 6-28 27-53 61-41v41" id="ae"/><path fill="#a9afb8" d="M62-158H24l-5-90h48" id="af"/><path fill="#a9afb8" d="M137-138c1-29-70-34-71-4 15 46 118 7 119 86 1 83-164 76-172 9l43-7c4 19 20 25 44 25 33 8 57-30 24-41C81-84 22-81 20-136c-2-80 154-74 161-7" id="ag"/><g id="c"><use transform="matrix(0.0728395061728395,0,0,0.0728395061728395,0,0)" xlink:href="#ad"/><use transform="matrix(0.0728395061728395,0,0,0.0728395061728395,18.86543209876543,0)" xlink:href="#ae"/><use transform="matrix(0.0728395061728395,0,0,0.0728395061728395,29.062962962962963,0)" xlink:href="#aa"/><use transform="matrix(0.0728395061728395,0,0,0.0728395061728395,45.01481481481481,0)" xlink:href="#ab"/><use transform="matrix(0.0728395061728395,0,0,0.0728395061728395,65.40987654320988,0)" xlink:href="#af"/><use transform="matrix(0.0728395061728395,0,0,0.0728395061728395,71.60123456790123,0)" xlink:href="#ag"/></g><path fill="#a9afb8" d="M76-208v77h127v40H76V0H24v-248h183v40H76" id="ah"/><path fill="#a9afb8" d="M115-3C79 11 28 4 28-45v-112H4v-33h27l15-45h31v45h36v33H77v99c-1 23 16 31 38 25v30" id="ai"/><g id="d"><use transform="matrix(0.0728395061728395,0,0,0.0728395061728395,0,0)" xlink:href="#ah"/><use transform="matrix(0.0728395061728395,0,0,0.0728395061728395,15.95185185185185,0)" xlink:href="#aa"/><use transform="matrix(0.0728395061728395,0,0,0.0728395061728395,31.9037037037037,0)" xlink:href="#aa"/><use transform="matrix(0.0728395061728395,0,0,0.0728395061728395,47.855555555555554,0)" xlink:href="#ai"/></g><path fill="#a9afb8" d="M24 0v-248h195v40H76v63h132v40H76v65h150V0H24" id="aj"/><path fill="#a9afb8" d="M240-174c0 40-23 61-54 70L253 0h-59l-57-94H76V0H24v-248c93 4 217-23 216 74zM76-134c48-2 112 12 112-38 0-48-66-32-112-35v73" id="ak"/><path fill="#a9afb8" d="M24-248c120-7 223 5 221 122C244-46 201 0 124 0H24v-248zM76-40c74 7 117-18 117-86 0-67-45-88-117-82v168" id="al"/><g id="e"><use transform="matrix(0.0728395061728395,0,0,0.0728395061728395,0,0)" xlink:href="#aj"/><use transform="matrix(0.0728395061728395,0,0,0.0728395061728395,17.48148148148148,0)" xlink:href="#ak"/><use transform="matrix(0.0728395061728395,0,0,0.0728395061728395,36.34691358024691,0)" xlink:href="#al"/></g><path fill="#a9afb8" d="M209 0H11v-25l151-195H24v-28h176v25L50-27h159V0" id="am"/><path fill="#a9afb8" d="M141-36C126-15 110 5 73 4 37 3 15-17 15-53c-1-64 63-63 125-63 3-35-9-54-41-54-24 1-41 7-42 31l-33-3c5-37 33-52 76-52 45 0 72 20 72 64v82c-1 20 7 32 28 27v20c-31 9-61-2-59-35zM48-53c0 20 12 33 32 33 41-3 63-29 60-74-43 2-92-5-92 41" id="an"/><path fill="#a9afb8" d="M96-169c-40 0-48 33-48 73s9 75 48 75c24 0 41-14 43-38l32 2c-6 37-31 61-74 61-59 0-76-41-82-99-10-93 101-131 147-64 4 7 5 14 7 22l-32 3c-4-21-16-35-41-35" id="ao"/><g id="f"><use transform="matrix(0.04248971193415638,0,0,0.04248971193415638,0,0)" xlink:href="#am"/><use transform="matrix(0.04248971193415638,0,0,0.04248971193415638,9.305246913580246,0)" xlink:href="#an"/><use transform="matrix(0.04248971193415638,0,0,0.04248971193415638,17.80318930041152,0)" xlink:href="#ao"/></g><path fill="#a9afb8" d="M197 0v-115H63V0H30v-248h33v105h134v-105h34V0h-34" id="ap"/><path fill="#a9afb8" d="M100-194c62-1 85 37 85 99 1 63-27 99-86 99S16-35 15-95c0-66 28-99 85-99zM99-20c44 1 53-31 53-75 0-43-8-75-51-75s-53 32-53 75 10 74 51 75" id="aq"/><path fill="#a9afb8" d="M24 0v-261h32V0H24" id="ar"/><path fill="#a9afb8" d="M179-190L93 31C79 59 56 82 12 73V49c39 6 53-20 64-50L1-190h34L92-34l54-156h33" id="as"/><g id="g"><use transform="matrix(0.04248971193415638,0,0,0.04248971193415638,0,0)" xlink:href="#ap"/><use transform="matrix(0.04248971193415638,0,0,0.04248971193415638,11.004835390946502,0)" xlink:href="#aq"/><use transform="matrix(0.04248971193415638,0,0,0.04248971193415638,19.502777777777776,0)" xlink:href="#ar"/><use transform="matrix(0.04248971193415638,0,0,0.04248971193415638,22.85946502057613,0)" xlink:href="#ar"/><use transform="matrix(0.04248971193415638,0,0,0.04248971193415638,26.216152263374486,0)" xlink:href="#as"/></g><path fill="#a9afb8" d="M32 76v-337h29V76H32" id="at"/><use transform="matrix(0.04248971193415638,0,0,0.04248971193415638,0,0)" xlink:href="#at" id="h"/><path fill="#a9afb8" d="M140-251c81 0 123 46 123 126C263-46 219 4 140 4 59 4 17-45 17-125s42-126 123-126zm0 227c63 0 89-41 89-101s-29-99-89-99c-61 0-89 39-89 99S79-25 140-24" id="au"/><path fill="#a9afb8" d="M59-47c-2 24 18 29 38 22v24C64 9 27 4 27-40v-127H5v-23h24l9-43h21v43h35v23H59v120" id="av"/><path fill="#a9afb8" d="M115-194c53 0 69 39 70 98 0 66-23 100-70 100C84 3 66-7 56-30L54 0H23l1-261h32v101c10-23 28-34 59-34zm-8 174c40 0 45-34 45-75 0-40-5-75-45-74-42 0-51 32-51 76 0 43 10 73 51 73" id="aw"/><path fill="#a9afb8" d="M100-194c63 0 86 42 84 106H49c0 40 14 67 53 68 26 1 43-12 49-29l28 8c-11 28-37 45-77 45C44 4 14-33 15-96c1-61 26-98 85-98zm52 81c6-60-76-77-97-28-3 7-6 17-6 28h103" id="ax"/><path fill="#a9afb8" d="M114-163C36-179 61-72 57 0H25l-1-190h30c1 12-1 29 2 39 6-27 23-49 58-41v29" id="ay"/><g id="i"><use transform="matrix(0.04248971193415638,0,0,0.04248971193415638,0,0)" xlink:href="#au"/><use transform="matrix(0.04248971193415638,0,0,0.04248971193415638,11.897119341563785,0)" xlink:href="#ao"/><use transform="matrix(0.04248971193415638,0,0,0.04248971193415638,19.545267489711932,0)" xlink:href="#av"/><use transform="matrix(0.04248971193415638,0,0,0.04248971193415638,23.79423868312757,0)" xlink:href="#aq"/><use transform="matrix(0.04248971193415638,0,0,0.04248971193415638,32.29218106995884,0)" xlink:href="#aw"/><use transform="matrix(0.04248971193415638,0,0,0.04248971193415638,40.79012345679012,0)" xlink:href="#ax"/><use transform="matrix(0.04248971193415638,0,0,0.04248971193415638,49.288065843621396,0)" xlink:href="#ay"/></g><path fill="#a9afb8" d="M99-251c64 0 84 50 84 122C183-37 130 33 47-8c-14-7-20-23-25-40l30-5c6 39 69 39 84 7 9-19 16-44 16-74-10 22-31 35-62 35-49 0-73-33-73-83 0-54 28-83 82-83zm-1 141c31-1 51-18 51-49 0-36-14-67-51-67-34 0-49 23-49 58 0 34 15 58 49 58" id="az"/><path fill="#a9afb8" d="M68-38c1 34 0 65-14 84H32c9-13 17-26 17-46H33v-38h35" id="aA"/><g id="j"><use transform="matrix(0.04248971193415638,0,0,0.04248971193415638,0,0)" xlink:href="#az"/><use transform="matrix(0.04248971193415638,0,0,0.04248971193415638,8.497942386831275,0)" xlink:href="#aA"/></g><path fill="#a9afb8" d="M101-251c82-7 93 87 43 132L82-64C71-53 59-42 53-27h129V0H18c2-99 128-94 128-182 0-28-16-43-45-43s-46 15-49 41l-32-3c6-41 34-60 81-64" id="aB"/><path fill="#a9afb8" d="M101-251c68 0 85 55 85 127S166 4 100 4C33 4 14-52 14-124c0-73 17-127 87-127zm-1 229c47 0 54-49 54-102s-4-102-53-102c-51 0-55 48-55 102 0 53 5 102 54 102" id="aC"/><path fill="#a9afb8" d="M27 0v-27h64v-190l-56 39v-29l58-41h29v221h61V0H27" id="aD"/><g id="k"><use transform="matrix(0.04248971193415638,0,0,0.04248971193415638,0,0)" xlink:href="#aB"/><use transform="matrix(0.04248971193415638,0,0,0.04248971193415638,8.497942386831275,0)" xlink:href="#aC"/><use transform="matrix(0.04248971193415638,0,0,0.04248971193415638,16.99588477366255,0)" xlink:href="#aB"/><use transform="matrix(0.04248971193415638,0,0,0.04248971193415638,25.493827160493822,0)" xlink:href="#aD"/></g><path fill="#333" d="M30-248c118-7 216 8 213 122C240-48 200 0 122 0H30v-248zM63-27c89 8 146-16 146-99s-60-101-146-95v194" id="aE"/><path fill="#333" d="M140-251c81 0 123 46 123 126C263-46 219 4 140 4 59 4 17-45 17-125s42-126 123-126zm0 227c63 0 89-41 89-101s-29-99-89-99c-61 0-89 39-89 99S79-25 140-24" id="aF"/><path fill="#333" d="M127-220V0H93v-220H8v-28h204v28h-85" id="aG"/><path fill="#333" d="M205 0l-28-72H64L36 0H1l101-248h38L239 0h-34zm-38-99l-47-123c-12 45-31 82-46 123h93" id="aH"/><path fill="#333" d="M-5 72V49h209v23H-5" id="aI"/><path fill="#333" d="M30-248c87 1 191-15 191 75 0 78-77 80-158 76V0H30v-248zm33 125c57 0 124 11 124-50 0-59-68-47-124-48v98" id="aJ"/><path fill="#333" d="M30 0v-248h33v221h125V0H30" id="aK"/><path fill="#333" d="M137-103V0h-34v-103L8-248h37l75 118 75-118h37" id="aL"/><path fill="#333" d="M30 0v-248h187v28H63v79h144v27H63v87h162V0H30" id="aM"/><path fill="#333" d="M233-177c-1 41-23 64-60 70L243 0h-38l-65-103H63V0H30v-248c88 3 205-21 203 71zM63-129c60-2 137 13 137-47 0-61-80-42-137-45v92" id="aN"/><g id="l"><use transform="matrix(0.05,0,0,0.05,0,0)" xlink:href="#aE"/><use transform="matrix(0.05,0,0,0.05,12.950000000000001,0)" xlink:href="#aF"/><use transform="matrix(0.05,0,0,0.05,26.950000000000003,0)" xlink:href="#aG"/><use transform="matrix(0.05,0,0,0.05,36.550000000000004,0)" xlink:href="#aH"/><use transform="matrix(0.05,0,0,0.05,48.550000000000004,0)" xlink:href="#aI"/><use transform="matrix(0.05,0,0,0.05,58.550000000000004,0)" xlink:href="#aJ"/><use transform="matrix(0.05,0,0,0.05,70.55000000000001,0)" xlink:href="#aK"/><use transform="matrix(0.05,0,0,0.05,80.55000000000001,0)" xlink:href="#aH"/><use transform="matrix(0.05,0,0,0.05,91.20000000000002,0)" xlink:href="#aL"/><use transform="matrix(0.05,0,0,0.05,103.2,0)" xlink:href="#aM"/><use transform="matrix(0.05,0,0,0.05,115.2,0)" xlink:href="#aN"/></g><path fill="#333" d="M194 0L95-120 63-95V0H30v-248h33v124l119-124h40L117-140 236 0h-42" id="aO"/><g id="m"><use transform="matrix(0.05,0,0,0.05,0,0)" xlink:href="#aJ"/><use transform="matrix(0.05,0,0,0.05,12,0)" xlink:href="#aO"/></g><path fill="#333" d="M33 0v-248h34V0H33" id="aP"/><g id="n"><use transform="matrix(0.05,0,0,0.05,0,0)" xlink:href="#aE"/><use transform="matrix(0.05,0,0,0.05,12.950000000000001,0)" xlink:href="#aF"/><use transform="matrix(0.05,0,0,0.05,26.950000000000003,0)" xlink:href="#aG"/><use transform="matrix(0.05,0,0,0.05,36.550000000000004,0)" xlink:href="#aH"/><use transform="matrix(0.05,0,0,0.05,48.550000000000004,0)" xlink:href="#aI"/><use transform="matrix(0.05,0,0,0.05,58.550000000000004,0)" xlink:href="#aJ"/><use transform="matrix(0.05,0,0,0.05,70.55000000000001,0)" xlink:href="#aK"/><use transform="matrix(0.05,0,0,0.05,80.55000000000001,0)" xlink:href="#aH"/><use transform="matrix(0.05,0,0,0.05,91.20000000000002,0)" xlink:href="#aL"/><use transform="matrix(0.05,0,0,0.05,103.2,0)" xlink:href="#aM"/><use transform="matrix(0.05,0,0,0.05,115.2,0)" xlink:href="#aN"/><use transform="matrix(0.05,0,0,0.05,128.15,0)" xlink:href="#aI"/><use transform="matrix(0.05,0,0,0.05,138.15,0)" xlink:href="#aP"/><use transform="matrix(0.05,0,0,0.05,143.15,0)" xlink:href="#aE"/></g><path fill="#333" d="M63-220v92h138v28H63V0H30v-248h175v28H63" id="aQ"/><path fill="#333" d="M190 0L58-211 59 0H30v-248h39L202-35l-2-213h31V0h-41" id="aR"/><path fill="#333" d="M240 0l2-218c-23 76-54 145-80 218h-23L58-218 59 0H30v-248h44l77 211c21-75 51-140 76-211h43V0h-30" id="aS"/><g id="o"><use transform="matrix(0.05,0,0,0.05,0,0)" xlink:href="#aE"/><use transform="matrix(0.05,0,0,0.05,12.950000000000001,0)" xlink:href="#aF"/><use transform="matrix(0.05,0,0,0.05,26.950000000000003,0)" xlink:href="#aG"/><use transform="matrix(0.05,0,0,0.05,36.550000000000004,0)" xlink:href="#aH"/><use transform="matrix(0.05,0,0,0.05,48.550000000000004,0)" xlink:href="#aI"/><use transform="matrix(0.05,0,0,0.05,58.550000000000004,0)" xlink:href="#aJ"/><use transform="matrix(0.05,0,0,0.05,70.55000000000001,0)" xlink:href="#aK"/><use transform="matrix(0.05,0,0,0.05,80.55000000000001,0)" xlink:href="#aH"/><use transform="matrix(0.05,0,0,0.05,91.20000000000002,0)" xlink:href="#aL"/><use transform="matrix(0.05,0,0,0.05,103.2,0)" xlink:href="#aM"/><use transform="matrix(0.05,0,0,0.05,115.2,0)" xlink:href="#aN"/><use transform="matrix(0.05,0,0,0.05,128.15,0)" xlink:href="#aI"/><use transform="matrix(0.05,0,0,0.05,138.15,0)" xlink:href="#aQ"/><use transform="matrix(0.05,0,0,0.05,149.1,0)" xlink:href="#aR"/><use transform="matrix(0.05,0,0,0.05,162.04999999999998,0)" xlink:href="#aH"/><use transform="matrix(0.05,0,0,0.05,174.04999999999998,0)" xlink:href="#aS"/><use transform="matrix(0.05,0,0,0.05,188.99999999999997,0)" xlink:href="#aM"/></g><g id="p"><use transform="matrix(0.05,0,0,0.05,0,0)" xlink:href="#aE"/><use transform="matrix(0.05,0,0,0.05,12.950000000000001,0)" xlink:href="#aF"/><use transform="matrix(0.05,0,0,0.05,26.950000000000003,0)" xlink:href="#aG"/><use transform="matrix(0.05,0,0,0.05,36.550000000000004,0)" xlink:href="#aH"/><use transform="matrix(0.05,0,0,0.05,48.550000000000004,0)" xlink:href="#aI"/><use transform="matrix(0.05,0,0,0.05,58.550000000000004,0)" xlink:href="#aJ"/><use transform="matrix(0.05,0,0,0.05,70.55000000000001,0)" xlink:href="#aK"/><use transform="matrix(0.05,0,0,0.05,80.55000000000001,0)" xlink:href="#aH"/><use transform="matrix(0.05,0,0,0.05,91.20000000000002,0)" xlink:href="#aL"/><use transform="matrix(0.05,0,0,0.05,103.2,0)" xlink:href="#aM"/><use transform="matrix(0.05,0,0,0.05,115.2,0)" xlink:href="#aN"/><use transform="matrix(0.05,0,0,0.05,128.15,0)" xlink:href="#aI"/><use transform="matrix(0.05,0,0,0.05,138.15,0)" xlink:href="#aK"/><use transform="matrix(0.05,0,0,0.05,148.15,0)" xlink:href="#aR"/><use transform="matrix(0.05,0,0,0.05,161.1,0)" xlink:href="#aH"/><use transform="matrix(0.05,0,0,0.05,173.1,0)" xlink:href="#aS"/><use transform="matrix(0.05,0,0,0.05,188.04999999999998,0)" xlink:href="#aM"/></g><path fill="#333" d="M197 0v-115H63V0H30v-248h33v105h134v-105h34V0h-34" id="aT"/><g id="q"><use transform="matrix(0.05,0,0,0.05,0,0)" xlink:href="#aE"/><use transform="matrix(0.05,0,0,0.05,12.950000000000001,0)" xlink:href="#aF"/><use transform="matrix(0.05,0,0,0.05,26.950000000000003,0)" xlink:href="#aG"/><use transform="matrix(0.05,0,0,0.05,36.550000000000004,0)" xlink:href="#aH"/><use transform="matrix(0.05,0,0,0.05,48.550000000000004,0)" xlink:href="#aI"/><use transform="matrix(0.05,0,0,0.05,58.550000000000004,0)" xlink:href="#aJ"/><use transform="matrix(0.05,0,0,0.05,70.55000000000001,0)" xlink:href="#aK"/><use transform="matrix(0.05,0,0,0.05,80.55000000000001,0)" xlink:href="#aH"/><use transform="matrix(0.05,0,0,0.05,91.20000000000002,0)" xlink:href="#aL"/><use transform="matrix(0.05,0,0,0.05,103.2,0)" xlink:href="#aM"/><use transform="matrix(0.05,0,0,0.05,115.2,0)" xlink:href="#aN"/><use transform="matrix(0.05,0,0,0.05,128.15,0)" xlink:href="#aI"/><use transform="matrix(0.05,0,0,0.05,138.15,0)" xlink:href="#aT"/><use transform="matrix(0.05,0,0,0.05,151.1,0)" xlink:href="#aH"/><use transform="matrix(0.05,0,0,0.05,163.1,0)" xlink:href="#aR"/><use transform="matrix(0.05,0,0,0.05,176.04999999999998,0)" xlink:href="#aE"/><use transform="matrix(0.05,0,0,0.05,188.99999999999997,0)" xlink:href="#aK"/><use transform="matrix(0.05,0,0,0.05,198.99999999999997,0)" xlink:href="#aM"/></g><path fill="#333" d="M185-189c-5-48-123-54-124 2 14 75 158 14 163 119 3 78-121 87-175 55-17-10-28-26-33-46l33-7c5 56 141 63 141-1 0-78-155-14-162-118-5-82 145-84 179-34 5 7 8 16 11 25" id="aU"/><path fill="#333" d="M212-179c-10-28-35-45-73-45-59 0-87 40-87 99 0 60 29 101 89 101 43 0 62-24 78-52l27 14C228-24 195 4 139 4 59 4 22-46 18-125c-6-104 99-153 187-111 19 9 31 26 39 46" id="aV"/><g id="r"><use transform="matrix(0.05,0,0,0.05,0,0)" xlink:href="#aE"/><use transform="matrix(0.05,0,0,0.05,12.950000000000001,0)" xlink:href="#aF"/><use transform="matrix(0.05,0,0,0.05,26.950000000000003,0)" xlink:href="#aG"/><use transform="matrix(0.05,0,0,0.05,36.550000000000004,0)" xlink:href="#aH"/><use transform="matrix(0.05,0,0,0.05,48.550000000000004,0)" xlink:href="#aI"/><use transform="matrix(0.05,0,0,0.05,58.550000000000004,0)" xlink:href="#aJ"/><use transform="matrix(0.05,0,0,0.05,70.55000000000001,0)" xlink:href="#aK"/><use transform="matrix(0.05,0,0,0.05,80.55000000000001,0)" xlink:href="#aH"/><use transform="matrix(0.05,0,0,0.05,91.20000000000002,0)" xlink:href="#aL"/><use transform="matrix(0.05,0,0,0.05,103.2,0)" xlink:href="#aM"/><use transform="matrix(0.05,0,0,0.05,115.2,0)" xlink:href="#aN"/><use transform="matrix(0.05,0,0,0.05,128.15,0)" xlink:href="#aI"/><use transform="matrix(0.05,0,0,0.05,138.15,0)" xlink:href="#aP"/><use transform="matrix(0.05,0,0,0.05,143.15,0)" xlink:href="#aU"/><use transform="matrix(0.05,0,0,0.05,155.15,0)" xlink:href="#aI"/><use transform="matrix(0.05,0,0,0.05,165.15,0)" xlink:href="#aV"/><use transform="matrix(0.05,0,0,0.05,178.1,0)" xlink:href="#aH"/><use transform="matrix(0.05,0,0,0.05,190.1,0)" xlink:href="#aJ"/><use transform="matrix(0.05,0,0,0.05,202.1,0)" xlink:href="#aG"/><use transform="matrix(0.05,0,0,0.05,211.69999999999996,0)" xlink:href="#aH"/><use transform="matrix(0.05,0,0,0.05,223.69999999999996,0)" xlink:href="#aP"/><use transform="matrix(0.05,0,0,0.05,228.69999999999996,0)" xlink:href="#aR"/></g><g id="s"><use transform="matrix(0.05,0,0,0.05,0,0)" xlink:href="#aE"/><use transform="matrix(0.05,0,0,0.05,12.950000000000001,0)" xlink:href="#aF"/><use transform="matrix(0.05,0,0,0.05,26.950000000000003,0)" xlink:href="#aG"/><use transform="matrix(0.05,0,0,0.05,36.550000000000004,0)" xlink:href="#aH"/><use transform="matrix(0.05,0,0,0.05,48.550000000000004,0)" xlink:href="#aI"/><use transform="matrix(0.05,0,0,0.05,58.550000000000004,0)" xlink:href="#aJ"/><use transform="matrix(0.05,0,0,0.05,70.55000000000001,0)" xlink:href="#aK"/><use transform="matrix(0.05,0,0,0.05,80.55000000000001,0)" xlink:href="#aH"/><use transform="matrix(0.05,0,0,0.05,91.20000000000002,0)" xlink:href="#aL"/><use transform="matrix(0.05,0,0,0.05,103.2,0)" xlink:href="#aM"/><use transform="matrix(0.05,0,0,0.05,115.2,0)" xlink:href="#aN"/><use transform="matrix(0.05,0,0,0.05,128.15,0)" xlink:href="#aI"/><use transform="matrix(0.05,0,0,0.05,138.15,0)" xlink:href="#aP"/><use transform="matrix(0.05,0,0,0.05,143.15,0)" xlink:href="#aU"/><use transform="matrix(0.05,0,0,0.05,155.15,0)" xlink:href="#aI"/><use transform="matrix(0.05,0,0,0.05,165.15,0)" xlink:href="#aV"/><use transform="matrix(0.05,0,0,0.05,178.1,0)" xlink:href="#aF"/><use transform="matrix(0.05,0,0,0.05,192.1,0)" xlink:href="#aH"/><use transform="matrix(0.05,0,0,0.05,204.1,0)" xlink:href="#aV"/><use transform="matrix(0.05,0,0,0.05,217.04999999999995,0)" xlink:href="#aT"/></g><path fill="#333" d="M143 4C61 4 22-44 18-125c-5-107 100-154 193-111 17 8 29 25 37 43l-32 9c-13-25-37-40-76-40-61 0-88 39-88 99 0 61 29 100 91 101 35 0 62-11 79-27v-45h-74v-28h105v86C228-13 192 4 143 4" id="aW"/><g id="t"><use transform="matrix(0.05,0,0,0.05,0,0)" xlink:href="#aE"/><use transform="matrix(0.05,0,0,0.05,12.950000000000001,0)" xlink:href="#aF"/><use transform="matrix(0.05,0,0,0.05,26.950000000000003,0)" xlink:href="#aG"/><use transform="matrix(0.05,0,0,0.05,36.550000000000004,0)" xlink:href="#aH"/><use transform="matrix(0.05,0,0,0.05,48.550000000000004,0)" xlink:href="#aI"/><use transform="matrix(0.05,0,0,0.05,58.550000000000004,0)" xlink:href="#aJ"/><use transform="matrix(0.05,0,0,0.05,70.55000000000001,0)" xlink:href="#aK"/><use transform="matrix(0.05,0,0,0.05,80.55000000000001,0)" xlink:href="#aH"/><use transform="matrix(0.05,0,0,0.05,91.20000000000002,0)" xlink:href="#aL"/><use transform="matrix(0.05,0,0,0.05,103.2,0)" xlink:href="#aM"/><use transform="matrix(0.05,0,0,0.05,115.2,0)" xlink:href="#aN"/><use transform="matrix(0.05,0,0,0.05,128.15,0)" xlink:href="#aI"/><use transform="matrix(0.05,0,0,0.05,138.15,0)" xlink:href="#aM"/><use transform="matrix(0.05,0,0,0.05,150.15,0)" xlink:href="#aH"/><use transform="matrix(0.05,0,0,0.05,162.15,0)" xlink:href="#aN"/><use transform="matrix(0.05,0,0,0.05,175.1,0)" xlink:href="#aR"/><use transform="matrix(0.05,0,0,0.05,188.04999999999998,0)" xlink:href="#aP"/><use transform="matrix(0.05,0,0,0.05,193.04999999999998,0)" xlink:href="#aR"/><use transform="matrix(0.05,0,0,0.05,205.99999999999997,0)" xlink:href="#aW"/><use transform="matrix(0.05,0,0,0.05,219.99999999999997,0)" xlink:href="#aU"/></g><g id="u"><use transform="matrix(0.05,0,0,0.05,0,0)" xlink:href="#aQ"/><use transform="matrix(0.05,0,0,0.05,10.950000000000001,0)" xlink:href="#aO"/></g><g id="v"><use transform="matrix(0.05,0,0,0.05,0,0)" xlink:href="#aE"/><use transform="matrix(0.05,0,0,0.05,12.950000000000001,0)" xlink:href="#aF"/><use transform="matrix(0.05,0,0,0.05,26.950000000000003,0)" xlink:href="#aG"/><use transform="matrix(0.05,0,0,0.05,36.550000000000004,0)" xlink:href="#aH"/><use transform="matrix(0.05,0,0,0.05,48.550000000000004,0)" xlink:href="#aI"/><use transform="matrix(0.05,0,0,0.05,58.550000000000004,0)" xlink:href="#aJ"/><use transform="matrix(0.05,0,0,0.05,70.55000000000001,0)" xlink:href="#aF"/><use transform="matrix(0.05,0,0,0.05,84.55000000000001,0)" xlink:href="#aU"/><use transform="matrix(0.05,0,0,0.05,96.55000000000001,0)" xlink:href="#aI"/><use transform="matrix(0.05,0,0,0.05,106.55000000000001,0)" xlink:href="#aP"/><use transform="matrix(0.05,0,0,0.05,111.55000000000001,0)" xlink:href="#aE"/></g><g id="w"><use transform="matrix(0.05,0,0,0.05,0,0)" xlink:href="#aE"/><use transform="matrix(0.05,0,0,0.05,12.950000000000001,0)" xlink:href="#aF"/><use transform="matrix(0.05,0,0,0.05,26.950000000000003,0)" xlink:href="#aG"/><use transform="matrix(0.05,0,0,0.05,36.550000000000004,0)" xlink:href="#aH"/><use transform="matrix(0.05,0,0,0.05,48.550000000000004,0)" xlink:href="#aI"/><use transform="matrix(0.05,0,0,0.05,58.550000000000004,0)" xlink:href="#aG"/><use transform="matrix(0.05,0,0,0.05,69.5,0)" xlink:href="#aM"/><use transform="matrix(0.05,0,0,0.05,81.5,0)" xlink:href="#aH"/><use transform="matrix(0.05,0,0,0.05,93.5,0)" xlink:href="#aS"/><use transform="matrix(0.05,0,0,0.05,108.45,0)" xlink:href="#aI"/><use transform="matrix(0.05,0,0,0.05,118.45,0)" xlink:href="#aP"/><use transform="matrix(0.05,0,0,0.05,123.45,0)" xlink:href="#aE"/></g><g id="x"><use transform="matrix(0.05,0,0,0.05,0,0)" xlink:href="#aG"/><use transform="matrix(0.05,0,0,0.05,10.600000000000001,0)" xlink:href="#aF"/><use transform="matrix(0.05,0,0,0.05,24.6,0)" xlink:href="#aJ"/><use transform="matrix(0.05,0,0,0.05,36.6,0)" xlink:href="#aI"/><use transform="matrix(0.05,0,0,0.05,46.6,0)" xlink:href="#aT"/><use transform="matrix(0.05,0,0,0.05,59.550000000000004,0)" xlink:href="#aM"/><use transform="matrix(0.05,0,0,0.05,71.55000000000001,0)" xlink:href="#aN"/><use transform="matrix(0.05,0,0,0.05,84.50000000000001,0)" xlink:href="#aF"/><use transform="matrix(0.05,0,0,0.05,98.50000000000001,0)" xlink:href="#aI"/><use transform="matrix(0.05,0,0,0.05,108.5,0)" xlink:href="#aP"/><use transform="matrix(0.05,0,0,0.05,113.5,0)" xlink:href="#aE"/></g><g id="y"><use transform="matrix(0.05,0,0,0.05,0,0)" xlink:href="#aE"/><use transform="matrix(0.05,0,0,0.05,12.950000000000001,0)" xlink:href="#aF"/><use transform="matrix(0.05,0,0,0.05,26.950000000000003,0)" xlink:href="#aG"/><use transform="matrix(0.05,0,0,0.05,36.550000000000004,0)" xlink:href="#aH"/><use transform="matrix(0.05,0,0,0.05,48.550000000000004,0)" xlink:href="#aI"/><use transform="matrix(0.05,0,0,0.05,58.550000000000004,0)" xlink:href="#aG"/><use transform="matrix(0.05,0,0,0.05,69.5,0)" xlink:href="#aM"/><use transform="matrix(0.05,0,0,0.05,81.5,0)" xlink:href="#aH"/><use transform="matrix(0.05,0,0,0.05,93.5,0)" xlink:href="#aS"/></g><g id="z"><use transform="matrix(0.05,0,0,0.05,0,0)" xlink:href="#aE"/><use transform="matrix(0.05,0,0,0.05,12.950000000000001,0)" xlink:href="#aF"/><use transform="matrix(0.05,0,0,0.05,26.950000000000003,0)" xlink:href="#aG"/><use transform="matrix(0.05,0,0,0.05,36.550000000000004,0)" xlink:href="#aH"/><use transform="matrix(0.05,0,0,0.05,48.550000000000004,0)" xlink:href="#aI"/><use transform="matrix(0.05,0,0,0.05,58.550000000000004,0)" xlink:href="#aG"/><use transform="matrix(0.05,0,0,0.05,69.5,0)" xlink:href="#aM"/><use transform="matrix(0.05,0,0,0.05,81.5,0)" xlink:href="#aH"/><use transform="matrix(0.05,0,0,0.05,93.5,0)" xlink:href="#aS"/><use transform="matrix(0.05,0,0,0.05,108.45,0)" xlink:href="#aI"/><use transform="matrix(0.05,0,0,0.05,118.45,0)" xlink:href="#aR"/><use transform="matrix(0.05,0,0,0.05,131.4,0)" xlink:href="#aH"/><use transform="matrix(0.05,0,0,0.05,143.4,0)" xlink:href="#aS"/><use transform="matrix(0.05,0,0,0.05,158.35,0)" xlink:href="#aM"/></g><g id="A"><use transform="matrix(0.05,0,0,0.05,0,0)" xlink:href="#aE"/><use transform="matrix(0.05,0,0,0.05,12.950000000000001,0)" xlink:href="#aF"/><use transform="matrix(0.05,0,0,0.05,26.950000000000003,0)" xlink:href="#aG"/><use transform="matrix(0.05,0,0,0.05,36.550000000000004,0)" xlink:href="#aH"/><use transform="matrix(0.05,0,0,0.05,48.550000000000004,0)" xlink:href="#aI"/><use transform="matrix(0.05,0,0,0.05,58.550000000000004,0)" xlink:href="#aG"/><use transform="matrix(0.05,0,0,0.05,69.5,0)" xlink:href="#aM"/><use transform="matrix(0.05,0,0,0.05,81.5,0)" xlink:href="#aH"/><use transform="matrix(0.05,0,0,0.05,93.5,0)" xlink:href="#aS"/><use transform="matrix(0.05,0,0,0.05,108.45,0)" xlink:href="#aI"/><use transform="matrix(0.05,0,0,0.05,118.45,0)" xlink:href="#aM"/><use transform="matrix(0.05,0,0,0.05,130.45,0)" xlink:href="#aH"/><use transform="matrix(0.05,0,0,0.05,142.45,0)" xlink:href="#aN"/><use transform="matrix(0.05,0,0,0.05,155.39999999999998,0)" xlink:href="#aR"/><use transform="matrix(0.05,0,0,0.05,168.34999999999997,0)" xlink:href="#aP"/><use transform="matrix(0.05,0,0,0.05,173.34999999999997,0)" xlink:href="#aR"/><use transform="matrix(0.05,0,0,0.05,186.29999999999995,0)" xlink:href="#aW"/><use transform="matrix(0.05,0,0,0.05,200.29999999999995,0)" xlink:href="#aU"/></g><g id="B"><use transform="matrix(0.05,0,0,0.05,0,0)" xlink:href="#aE"/><use transform="matrix(0.05,0,0,0.05,12.950000000000001,0)" xlink:href="#aF"/><use transform="matrix(0.05,0,0,0.05,26.950000000000003,0)" xlink:href="#aG"/><use transform="matrix(0.05,0,0,0.05,36.550000000000004,0)" xlink:href="#aH"/><use transform="matrix(0.05,0,0,0.05,48.550000000000004,0)" xlink:href="#aI"/><use transform="matrix(0.05,0,0,0.05,58.550000000000004,0)" xlink:href="#aU"/><use transform="matrix(0.05,0,0,0.05,70.55000000000001,0)" xlink:href="#aM"/><use transform="matrix(0.05,0,0,0.05,82.55000000000001,0)" xlink:href="#aN"/><use transform="matrix(0.05,0,0,0.05,95.50000000000001,0)" xlink:href="#aP"/><use transform="matrix(0.05,0,0,0.05,100.50000000000001,0)" xlink:href="#aM"/><use transform="matrix(0.05,0,0,0.05,112.5,0)" xlink:href="#aU"/><use transform="matrix(0.05,0,0,0.05,124.5,0)" xlink:href="#aI"/><use transform="matrix(0.05,0,0,0.05,134.5,0)" xlink:href="#aP"/><use transform="matrix(0.05,0,0,0.05,139.5,0)" xlink:href="#aE"/></g><g id="C"><use transform="matrix(0.05,0,0,0.05,0,0)" xlink:href="#aE"/><use transform="matrix(0.05,0,0,0.05,12.950000000000001,0)" xlink:href="#aF"/><use transform="matrix(0.05,0,0,0.05,26.950000000000003,0)" xlink:href="#aG"/><use transform="matrix(0.05,0,0,0.05,36.550000000000004,0)" xlink:href="#aH"/><use transform="matrix(0.05,0,0,0.05,48.550000000000004,0)" xlink:href="#aI"/><use transform="matrix(0.05,0,0,0.05,58.550000000000004,0)" xlink:href="#aS"/><use transform="matrix(0.05,0,0,0.05,73.5,0)" xlink:href="#aH"/><use transform="matrix(0.05,0,0,0.05,84.15,0)" xlink:href="#aG"/><use transform="matrix(0.05,0,0,0.05,95.10000000000001,0)" xlink:href="#aV"/><use transform="matrix(0.05,0,0,0.05,108.05000000000001,0)" xlink:href="#aT"/><use transform="matrix(0.05,0,0,0.05,121,0)" xlink:href="#aI"/><use transform="matrix(0.05,0,0,0.05,131,0)" xlink:href="#aP"/><use transform="matrix(0.05,0,0,0.05,136,0)" xlink:href="#aE"/></g><g id="D"><use transform="matrix(0.05,0,0,0.05,0,0)" xlink:href="#aV"/><use transform="matrix(0.05,0,0,0.05,12.950000000000001,0)" xlink:href="#aF"/><use transform="matrix(0.05,0,0,0.05,26.950000000000003,0)" xlink:href="#aS"/><use transform="matrix(0.05,0,0,0.05,41.900000000000006,0)" xlink:href="#aJ"/><use transform="matrix(0.05,0,0,0.05,53.900000000000006,0)" xlink:href="#aI"/><use transform="matrix(0.05,0,0,0.05,63.900000000000006,0)" xlink:href="#aG"/><use transform="matrix(0.05,0,0,0.05,74.85000000000001,0)" xlink:href="#aM"/><use transform="matrix(0.05,0,0,0.05,86.85000000000001,0)" xlink:href="#aH"/><use transform="matrix(0.05,0,0,0.05,98.85000000000001,0)" xlink:href="#aS"/><use transform="matrix(0.05,0,0,0.05,113.80000000000001,0)" xlink:href="#aI"/><use transform="matrix(0.05,0,0,0.05,123.80000000000001,0)" xlink:href="#aP"/><use transform="matrix(0.05,0,0,0.05,128.8,0)" xlink:href="#aE"/></g><g id="E"><use transform="matrix(0.05,0,0,0.05,0,0)" xlink:href="#aE"/><use transform="matrix(0.05,0,0,0.05,12.950000000000001,0)" xlink:href="#aF"/><use transform="matrix(0.05,0,0,0.05,26.950000000000003,0)" xlink:href="#aG"/><use transform="matrix(0.05,0,0,0.05,36.550000000000004,0)" xlink:href="#aH"/><use transform="matrix(0.05,0,0,0.05,48.550000000000004,0)" xlink:href="#aI"/><use transform="matrix(0.05,0,0,0.05,58.550000000000004,0)" xlink:href="#aJ"/><use transform="matrix(0.05,0,0,0.05,70.55000000000001,0)" xlink:href="#aF"/><use transform="matrix(0.05,0,0,0.05,84.55000000000001,0)" xlink:href="#aU"/></g><g id="F"><use transform="matrix(0.05,0,0,0.05,0,0)" xlink:href="#aE"/><use transform="matrix(0.05,0,0,0.05,12.950000000000001,0)" xlink:href="#aF"/><use transform="matrix(0.05,0,0,0.05,26.950000000000003,0)" xlink:href="#aG"/><use transform="matrix(0.05,0,0,0.05,36.550000000000004,0)" xlink:href="#aH"/><use transform="matrix(0.05,0,0,0.05,48.550000000000004,0)" xlink:href="#aI"/><use transform="matrix(0.05,0,0,0.05,58.550000000000004,0)" xlink:href="#aJ"/><use transform="matrix(0.05,0,0,0.05,70.55000000000001,0)" xlink:href="#aF"/><use transform="matrix(0.05,0,0,0.05,84.55000000000001,0)" xlink:href="#aU"/><use transform="matrix(0.05,0,0,0.05,96.55000000000001,0)" xlink:href="#aI"/><use transform="matrix(0.05,0,0,0.05,106.55000000000001,0)" xlink:href="#aR"/><use transform="matrix(0.05,0,0,0.05,119.5,0)" xlink:href="#aH"/><use transform="matrix(0.05,0,0,0.05,131.5,0)" xlink:href="#aS"/><use transform="matrix(0.05,0,0,0.05,146.45,0)" xlink:href="#aM"/></g><g id="G"><use transform="matrix(0.05,0,0,0.05,0,0)" xlink:href="#aE"/><use transform="matrix(0.05,0,0,0.05,12.950000000000001,0)" xlink:href="#aF"/><use transform="matrix(0.05,0,0,0.05,26.950000000000003,0)" xlink:href="#aG"/><use transform="matrix(0.05,0,0,0.05,36.550000000000004,0)" xlink:href="#aH"/><use transform="matrix(0.05,0,0,0.05,48.550000000000004,0)" xlink:href="#aI"/><use transform="matrix(0.05,0,0,0.05,58.550000000000004,0)" xlink:href="#aT"/><use transform="matrix(0.05,0,0,0.05,71.5,0)" xlink:href="#aM"/><use transform="matrix(0.05,0,0,0.05,83.5,0)" xlink:href="#aN"/><use transform="matrix(0.05,0,0,0.05,96.45,0)" xlink:href="#aF"/></g><g id="H"><use transform="matrix(0.05,0,0,0.05,0,0)" xlink:href="#aE"/><use transform="matrix(0.05,0,0,0.05,12.950000000000001,0)" xlink:href="#aF"/><use transform="matrix(0.05,0,0,0.05,26.950000000000003,0)" xlink:href="#aG"/><use transform="matrix(0.05,0,0,0.05,36.550000000000004,0)" xlink:href="#aH"/><use transform="matrix(0.05,0,0,0.05,48.550000000000004,0)" xlink:href="#aI"/><use transform="matrix(0.05,0,0,0.05,58.550000000000004,0)" xlink:href="#aT"/><use transform="matrix(0.05,0,0,0.05,71.5,0)" xlink:href="#aM"/><use transform="matrix(0.05,0,0,0.05,83.5,0)" xlink:href="#aN"/><use transform="matrix(0.05,0,0,0.05,96.45,0)" xlink:href="#aF"/><use transform="matrix(0.05,0,0,0.05,110.45,0)" xlink:href="#aI"/><use transform="matrix(0.05,0,0,0.05,120.45,0)" xlink:href="#aP"/><use transform="matrix(0.05,0,0,0.05,125.45,0)" xlink:href="#aE"/></g><g id="I"><use transform="matrix(0.05,0,0,0.05,0,0)" xlink:href="#aE"/><use transform="matrix(0.05,0,0,0.05,12.950000000000001,0)" xlink:href="#aF"/><use transform="matrix(0.05,0,0,0.05,26.950000000000003,0)" xlink:href="#aG"/><use transform="matrix(0.05,0,0,0.05,36.550000000000004,0)" xlink:href="#aH"/><use transform="matrix(0.05,0,0,0.05,48.550000000000004,0)" xlink:href="#aI"/><use transform="matrix(0.05,0,0,0.05,58.550000000000004,0)" xlink:href="#aT"/><use transform="matrix(0.05,0,0,0.05,71.5,0)" xlink:href="#aM"/><use transform="matrix(0.05,0,0,0.05,83.5,0)" xlink:href="#aN"/><use transform="matrix(0.05,0,0,0.05,96.45,0)" xlink:href="#aF"/><use transform="matrix(0.05,0,0,0.05,110.45,0)" xlink:href="#aI"/><use transform="matrix(0.05,0,0,0.05,120.45,0)" xlink:href="#aR"/><use transform="matrix(0.05,0,0,0.05,133.4,0)" xlink:href="#aH"/><use transform="matrix(0.05,0,0,0.05,145.4,0)" xlink:href="#aS"/><use transform="matrix(0.05,0,0,0.05,160.35,0)" xlink:href="#aM"/></g><g id="J"><use transform="matrix(0.05,0,0,0.05,0,0)" xlink:href="#aE"/><use transform="matrix(0.05,0,0,0.05,12.950000000000001,0)" xlink:href="#aF"/><use transform="matrix(0.05,0,0,0.05,26.950000000000003,0)" xlink:href="#aG"/><use transform="matrix(0.05,0,0,0.05,36.550000000000004,0)" xlink:href="#aH"/><use transform="matrix(0.05,0,0,0.05,48.550000000000004,0)" xlink:href="#aI"/><use transform="matrix(0.05,0,0,0.05,58.550000000000004,0)" xlink:href="#aT"/><use transform="matrix(0.05,0,0,0.05,71.5,0)" xlink:href="#aM"/><use transform="matrix(0.05,0,0,0.05,83.5,0)" xlink:href="#aN"/><use transform="matrix(0.05,0,0,0.05,96.45,0)" xlink:href="#aF"/><use transform="matrix(0.05,0,0,0.05,110.45,0)" xlink:href="#aI"/><use transform="matrix(0.05,0,0,0.05,120.45,0)" xlink:href="#aH"/><use transform="matrix(0.05,0,0,0.05,131.10000000000002,0)" xlink:href="#aG"/><use transform="matrix(0.05,0,0,0.05,142.05,0)" xlink:href="#aG"/><use transform="matrix(0.05,0,0,0.05,153,0)" xlink:href="#aN"/></g><g id="K"><use transform="matrix(0.05,0,0,0.05,0,0)" xlink:href="#aE"/><use transform="matrix(0.05,0,0,0.05,12.950000000000001,0)" xlink:href="#aF"/><use transform="matrix(0.05,0,0,0.05,26.950000000000003,0)" xlink:href="#aG"/><use transform="matrix(0.05,0,0,0.05,36.550000000000004,0)" xlink:href="#aH"/></g><g id="L"><use transform="matrix(0.05,0,0,0.05,0,0)" xlink:href="#aI"/><use transform="matrix(0.05,0,0,0.05,10,0)" xlink:href="#aG"/><use transform="matrix(0.05,0,0,0.05,20.6,0)" xlink:href="#aF"/><use transform="matrix(0.05,0,0,0.05,34.6,0)" xlink:href="#aJ"/><use transform="matrix(0.05,0,0,0.05,46.6,0)" xlink:href="#aI"/><use transform="matrix(0.05,0,0,0.05,56.6,0)" xlink:href="#aT"/><use transform="matrix(0.05,0,0,0.05,69.55,0)" xlink:href="#aM"/><use transform="matrix(0.05,0,0,0.05,81.55,0)" xlink:href="#aN"/><use transform="matrix(0.05,0,0,0.05,94.5,0)" xlink:href="#aF"/></g><g id="M"><use transform="matrix(0.05,0,0,0.05,0,0)" xlink:href="#aG"/><use transform="matrix(0.05,0,0,0.05,10.600000000000001,0)" xlink:href="#aF"/><use transform="matrix(0.05,0,0,0.05,24.6,0)" xlink:href="#aJ"/><use transform="matrix(0.05,0,0,0.05,36.6,0)" xlink:href="#aI"/><use transform="matrix(0.05,0,0,0.05,46.6,0)" xlink:href="#aT"/><use transform="matrix(0.05,0,0,0.05,59.550000000000004,0)" xlink:href="#aM"/><use transform="matrix(0.05,0,0,0.05,71.55000000000001,0)" xlink:href="#aN"/><use transform="matrix(0.05,0,0,0.05,84.50000000000001,0)" xlink:href="#aF"/><use transform="matrix(0.05,0,0,0.05,98.50000000000001,0)" xlink:href="#aI"/><use transform="matrix(0.05,0,0,0.05,108.5,0)" xlink:href="#aS"/><use transform="matrix(0.05,0,0,0.05,123.45,0)" xlink:href="#aH"/><use transform="matrix(0.05,0,0,0.05,134.10000000000002,0)" xlink:href="#aG"/><use transform="matrix(0.05,0,0,0.05,145.05,0)" xlink:href="#aV"/><use transform="matrix(0.05,0,0,0.05,158,0)" xlink:href="#aT"/><use transform="matrix(0.05,0,0,0.05,170.95,0)" xlink:href="#aM"/><use transform="matrix(0.05,0,0,0.05,182.95,0)" xlink:href="#aU"/><use transform="matrix(0.05,0,0,0.05,194.95,0)" xlink:href="#aI"/><use transform="matrix(0.05,0,0,0.05,204.94999999999996,0)" xlink:href="#aJ"/><use transform="matrix(0.05,0,0,0.05,216.94999999999996,0)" xlink:href="#aK"/><use transform="matrix(0.05,0,0,0.05,226.94999999999996,0)" xlink:href="#aH"/><use transform="matrix(0.05,0,0,0.05,237.60000000000002,0)" xlink:href="#aL"/><use transform="matrix(0.05,0,0,0.05,249.60000000000002,0)" xlink:href="#aM"/><use transform="matrix(0.05,0,0,0.05,261.6,0)" xlink:href="#aE"/></g><path fill="#333" d="M266 0h-40l-56-210L115 0H75L2-248h35L96-30l15-64 43-154h32l59 218 59-218h35" id="aX"/><g id="N"><use transform="matrix(0.05,0,0,0.05,0,0)" xlink:href="#aG"/><use transform="matrix(0.05,0,0,0.05,10.600000000000001,0)" xlink:href="#aF"/><use transform="matrix(0.05,0,0,0.05,24.6,0)" xlink:href="#aJ"/><use transform="matrix(0.05,0,0,0.05,36.6,0)" xlink:href="#aI"/><use transform="matrix(0.05,0,0,0.05,46.6,0)" xlink:href="#aT"/><use transform="matrix(0.05,0,0,0.05,59.550000000000004,0)" xlink:href="#aM"/><use transform="matrix(0.05,0,0,0.05,71.55000000000001,0)" xlink:href="#aN"/><use transform="matrix(0.05,0,0,0.05,84.50000000000001,0)" xlink:href="#aF"/><use transform="matrix(0.05,0,0,0.05,98.50000000000001,0)" xlink:href="#aI"/><use transform="matrix(0.05,0,0,0.05,108.5,0)" xlink:href="#aS"/><use transform="matrix(0.05,0,0,0.05,123.45,0)" xlink:href="#aH"/><use transform="matrix(0.05,0,0,0.05,134.10000000000002,0)" xlink:href="#aG"/><use transform="matrix(0.05,0,0,0.05,145.05,0)" xlink:href="#aV"/><use transform="matrix(0.05,0,0,0.05,158,0)" xlink:href="#aT"/><use transform="matrix(0.05,0,0,0.05,170.95,0)" xlink:href="#aM"/><use transform="matrix(0.05,0,0,0.05,182.95,0)" xlink:href="#aU"/><use transform="matrix(0.05,0,0,0.05,194.95,0)" xlink:href="#aI"/><use transform="matrix(0.05,0,0,0.05,204.94999999999996,0)" xlink:href="#aX"/><use transform="matrix(0.05,0,0,0.05,221.89999999999998,0)" xlink:href="#aF"/><use transform="matrix(0.05,0,0,0.05,235.89999999999998,0)" xlink:href="#aR"/></g><g id="O"><use transform="matrix(0.05,0,0,0.05,0,0)" xlink:href="#aG"/><use transform="matrix(0.05,0,0,0.05,10.600000000000001,0)" xlink:href="#aF"/><use transform="matrix(0.05,0,0,0.05,24.6,0)" xlink:href="#aJ"/><use transform="matrix(0.05,0,0,0.05,36.6,0)" xlink:href="#aI"/><use transform="matrix(0.05,0,0,0.05,46.6,0)" xlink:href="#aT"/><use transform="matrix(0.05,0,0,0.05,59.550000000000004,0)" xlink:href="#aM"/><use transform="matrix(0.05,0,0,0.05,71.55000000000001,0)" xlink:href="#aN"/><use transform="matrix(0.05,0,0,0.05,84.50000000000001,0)" xlink:href="#aF"/><use transform="matrix(0.05,0,0,0.05,98.50000000000001,0)" xlink:href="#aI"/><use transform="matrix(0.05,0,0,0.05,108.5,0)" xlink:href="#aX"/><use transform="matrix(0.05,0,0,0.05,125.45,0)" xlink:href="#aP"/><use transform="matrix(0.05,0,0,0.05,130.45000000000002,0)" xlink:href="#aR"/><use transform="matrix(0.05,0,0,0.05,143.4,0)" xlink:href="#aI"/><use transform="matrix(0.05,0,0,0.05,153.4,0)" xlink:href="#aN"/><use transform="matrix(0.05,0,0,0.05,166.35,0)" xlink:href="#aH"/><use transform="matrix(0.05,0,0,0.05,177,0)" xlink:href="#aG"/><use transform="matrix(0.05,0,0,0.05,187.95,0)" xlink:href="#aM"/></g><g id="P"><use transform="matrix(0.05,0,0,0.05,0,0)" xlink:href="#aE"/><use transform="matrix(0.05,0,0,0.05,12.950000000000001,0)" xlink:href="#aF"/><use transform="matrix(0.05,0,0,0.05,26.950000000000003,0)" xlink:href="#aG"/><use transform="matrix(0.05,0,0,0.05,36.550000000000004,0)" xlink:href="#aH"/><use transform="matrix(0.05,0,0,0.05,48.550000000000004,0)" xlink:href="#aI"/><use transform="matrix(0.05,0,0,0.05,58.550000000000004,0)" xlink:href="#aS"/><use transform="matrix(0.05,0,0,0.05,73.5,0)" xlink:href="#aH"/><use transform="matrix(0.05,0,0,0.05,84.15,0)" xlink:href="#aG"/><use transform="matrix(0.05,0,0,0.05,95.10000000000001,0)" xlink:href="#aV"/><use transform="matrix(0.05,0,0,0.05,108.05000000000001,0)" xlink:href="#aT"/></g><g id="Q"><use transform="matrix(0.05,0,0,0.05,0,0)" xlink:href="#aE"/><use transform="matrix(0.05,0,0,0.05,12.950000000000001,0)" xlink:href="#aF"/><use transform="matrix(0.05,0,0,0.05,26.950000000000003,0)" xlink:href="#aG"/><use transform="matrix(0.05,0,0,0.05,36.550000000000004,0)" xlink:href="#aH"/><use transform="matrix(0.05,0,0,0.05,48.550000000000004,0)" xlink:href="#aI"/><use transform="matrix(0.05,0,0,0.05,58.550000000000004,0)" xlink:href="#aS"/><use transform="matrix(0.05,0,0,0.05,73.5,0)" xlink:href="#aH"/><use transform="matrix(0.05,0,0,0.05,84.15,0)" xlink:href="#aG"/><use transform="matrix(0.05,0,0,0.05,95.10000000000001,0)" xlink:href="#aV"/><use transform="matrix(0.05,0,0,0.05,108.05000000000001,0)" xlink:href="#aT"/><use transform="matrix(0.05,0,0,0.05,121,0)" xlink:href="#aI"/><use transform="matrix(0.05,0,0,0.05,131,0)" xlink:href="#aE"/><use transform="matrix(0.05,0,0,0.05,143.95,0)" xlink:href="#aH"/><use transform="matrix(0.05,0,0,0.05,154.6,0)" xlink:href="#aG"/><use transform="matrix(0.05,0,0,0.05,165.54999999999998,0)" xlink:href="#aM"/></g><g id="R"><use transform="matrix(0.05,0,0,0.05,0,0)" xlink:href="#aE"/><use transform="matrix(0.05,0,0,0.05,12.950000000000001,0)" xlink:href="#aF"/><use transform="matrix(0.05,0,0,0.05,26.950000000000003,0)" xlink:href="#aG"/><use transform="matrix(0.05,0,0,0.05,36.550000000000004,0)" xlink:href="#aH"/><use transform="matrix(0.05,0,0,0.05,48.550000000000004,0)" xlink:href="#aI"/><use transform="matrix(0.05,0,0,0.05,58.550000000000004,0)" xlink:href="#aS"/><use transform="matrix(0.05,0,0,0.05,73.5,0)" xlink:href="#aH"/><use transform="matrix(0.05,0,0,0.05,84.15,0)" xlink:href="#aG"/><use transform="matrix(0.05,0,0,0.05,95.10000000000001,0)" xlink:href="#aV"/><use transform="matrix(0.05,0,0,0.05,108.05000000000001,0)" xlink:href="#aT"/><use transform="matrix(0.05,0,0,0.05,121,0)" xlink:href="#aI"/><use transform="matrix(0.05,0,0,0.05,131,0)" xlink:href="#aG"/><use transform="matrix(0.05,0,0,0.05,141.95,0)" xlink:href="#aP"/><use transform="matrix(0.05,0,0,0.05,146.95,0)" xlink:href="#aS"/><use transform="matrix(0.05,0,0,0.05,161.89999999999998,0)" xlink:href="#aM"/></g><g id="S"><use transform="matrix(0.05,0,0,0.05,0,0)" xlink:href="#aE"/><use transform="matrix(0.05,0,0,0.05,12.950000000000001,0)" xlink:href="#aF"/><use transform="matrix(0.05,0,0,0.05,26.950000000000003,0)" xlink:href="#aG"/><use transform="matrix(0.05,0,0,0.05,36.550000000000004,0)" xlink:href="#aH"/><use transform="matrix(0.05,0,0,0.05,48.550000000000004,0)" xlink:href="#aI"/><use transform="matrix(0.05,0,0,0.05,58.550000000000004,0)" xlink:href="#aS"/><use transform="matrix(0.05,0,0,0.05,73.5,0)" xlink:href="#aH"/><use transform="matrix(0.05,0,0,0.05,84.15,0)" xlink:href="#aG"/><use transform="matrix(0.05,0,0,0.05,95.10000000000001,0)" xlink:href="#aV"/><use transform="matrix(0.05,0,0,0.05,108.05000000000001,0)" xlink:href="#aT"/><use transform="matrix(0.05,0,0,0.05,121,0)" xlink:href="#aI"/><use transform="matrix(0.05,0,0,0.05,131,0)" xlink:href="#aO"/><use transform="matrix(0.05,0,0,0.05,143,0)" xlink:href="#aP"/><use transform="matrix(0.05,0,0,0.05,148,0)" xlink:href="#aK"/><use transform="matrix(0.05,0,0,0.05,158,0)" xlink:href="#aK"/><use transform="matrix(0.05,0,0,0.05,168,0)" xlink:href="#aU"/></g><g id="T"><use transform="matrix(0.05,0,0,0.05,0,0)" xlink:href="#aE"/><use transform="matrix(0.05,0,0,0.05,12.950000000000001,0)" xlink:href="#aF"/><use transform="matrix(0.05,0,0,0.05,26.950000000000003,0)" xlink:href="#aG"/><use transform="matrix(0.05,0,0,0.05,36.550000000000004,0)" xlink:href="#aH"/><use transform="matrix(0.05,0,0,0.05,48.550000000000004,0)" xlink:href="#aI"/><use transform="matrix(0.05,0,0,0.05,58.550000000000004,0)" xlink:href="#aU"/><use transform="matrix(0.05,0,0,0.05,70.55000000000001,0)" xlink:href="#aM"/><use transform="matrix(0.05,0,0,0.05,82.55000000000001,0)" xlink:href="#aN"/><use transform="matrix(0.05,0,0,0.05,95.50000000000001,0)" xlink:href="#aP"/><use transform="matrix(0.05,0,0,0.05,100.50000000000001,0)" xlink:href="#aM"/><use transform="matrix(0.05,0,0,0.05,112.5,0)" xlink:href="#aU"/></g><path fill="#333" d="M160-131c35 5 61 23 61 61C221 17 115-2 30 0v-248c76 3 177-17 177 60 0 33-19 50-47 57zm-97-11c50-1 110 9 110-42 0-47-63-36-110-37v79zm0 115c55-2 124 14 124-45 0-56-70-42-124-44v89" id="aY"/><g id="U"><use transform="matrix(0.05,0,0,0.05,0,0)" xlink:href="#aE"/><use transform="matrix(0.05,0,0,0.05,12.950000000000001,0)" xlink:href="#aF"/><use transform="matrix(0.05,0,0,0.05,26.950000000000003,0)" xlink:href="#aG"/><use transform="matrix(0.05,0,0,0.05,36.550000000000004,0)" xlink:href="#aH"/><use transform="matrix(0.05,0,0,0.05,48.550000000000004,0)" xlink:href="#aI"/><use transform="matrix(0.05,0,0,0.05,58.550000000000004,0)" xlink:href="#aU"/><use transform="matrix(0.05,0,0,0.05,70.55000000000001,0)" xlink:href="#aM"/><use transform="matrix(0.05,0,0,0.05,82.55000000000001,0)" xlink:href="#aN"/><use transform="matrix(0.05,0,0,0.05,95.50000000000001,0)" xlink:href="#aP"/><use transform="matrix(0.05,0,0,0.05,100.50000000000001,0)" xlink:href="#aM"/><use transform="matrix(0.05,0,0,0.05,112.5,0)" xlink:href="#aU"/><use transform="matrix(0.05,0,0,0.05,124.5,0)" xlink:href="#aI"/><use transform="matrix(0.05,0,0,0.05,134.5,0)" xlink:href="#aY"/><use transform="matrix(0.05,0,0,0.05,146.5,0)" xlink:href="#aM"/><use transform="matrix(0.05,0,0,0.05,158.5,0)" xlink:href="#aU"/><use transform="matrix(0.05,0,0,0.05,170.5,0)" xlink:href="#aG"/><use transform="matrix(0.05,0,0,0.05,181.45,0)" xlink:href="#aI"/><use transform="matrix(0.05,0,0,0.05,191.45,0)" xlink:href="#aF"/><use transform="matrix(0.05,0,0,0.05,205.44999999999996,0)" xlink:href="#aQ"/></g><g id="V"><use transform="matrix(0.05,0,0,0.05,0,0)" xlink:href="#aV"/><use transform="matrix(0.05,0,0,0.05,12.950000000000001,0)" xlink:href="#aF"/><use transform="matrix(0.05,0,0,0.05,26.950000000000003,0)" xlink:href="#aS"/><use transform="matrix(0.05,0,0,0.05,41.900000000000006,0)" xlink:href="#aJ"/><use transform="matrix(0.05,0,0,0.05,53.900000000000006,0)" xlink:href="#aM"/><use transform="matrix(0.05,0,0,0.05,65.9,0)" xlink:href="#aG"/><use transform="matrix(0.05,0,0,0.05,76.85000000000001,0)" xlink:href="#aP"/><use transform="matrix(0.05,0,0,0.05,81.85000000000001,0)" xlink:href="#aR"/><use transform="matrix(0.05,0,0,0.05,94.80000000000001,0)" xlink:href="#aW"/><use transform="matrix(0.05,0,0,0.05,108.80000000000001,0)" xlink:href="#aI"/><use transform="matrix(0.05,0,0,0.05,118.80000000000001,0)" xlink:href="#aG"/><use transform="matrix(0.05,0,0,0.05,129.75,0)" xlink:href="#aM"/><use transform="matrix(0.05,0,0,0.05,141.75,0)" xlink:href="#aH"/><use transform="matrix(0.05,0,0,0.05,153.75,0)" xlink:href="#aS"/></g></defs></g></svg>